<svg xmlns="http://www.w3.org/2000/svg" viewBox="0 0 722 267.28"><defs><style>.cls-1{fill:#fff;}</style></defs><title>Asset 2</title><g id="Layer_2" data-name="Layer 2"><g id="Base"><path class="cls-1" d="M151.29,178.52a144.23,144.23,0,0,1-3.56,34.41,69.69,69.69,0,0,1-13.42,28q-9.69,12.1-26.07,19.1t-41.15,7.21a120.89,120.89,0,0,1-42.2-6.82A103.92,103.92,0,0,1,10,253.93a55.52,55.52,0,0,1-10-6.74L13.78,218.6A146.78,146.78,0,0,0,34,230.06q12.44,6,30.92,5.81,26.63-.24,38.69-13.85t11.77-46.49L113.85,5.13,149.7,4.8Z"/><path class="cls-1" d="M237.11,131.92a57.6,57.6,0,0,1-21.65-3.7A46,46,0,0,1,198.62,117a51.25,51.25,0,0,1-11-18.34,76.11,76.11,0,0,1-4.05-25.07,68.29,68.29,0,0,1,4.07-25.14A54.42,54.42,0,0,1,199.12,29.9a49,49,0,0,1,17-11.53,55.55,55.55,0,0,1,20.76-4.1,74.7,74.7,0,0,1,12.6.86,77.8,77.8,0,0,1,9.78,2.19A46.38,46.38,0,0,1,266,19.86a39.75,39.75,0,0,1,3.59,1.91l-4.43,13a25,25,0,0,0-4.24-2.07q-2.77-1.11-6.28-2.22A56.66,56.66,0,0,0,247,28.73a47.92,47.92,0,0,0-8.38-.66,40.28,40.28,0,0,0-16.05,3.24,33.22,33.22,0,0,0-12.11,9,40.59,40.59,0,0,0-7.59,14.29,61.4,61.4,0,0,0-2.5,18.8,67.07,67.07,0,0,0,2.52,18.34,40.23,40.23,0,0,0,7.2,14.15A31.68,31.68,0,0,0,221.92,115a39,39,0,0,0,16.53,3.1q10.88-.1,18-2.44a79.87,79.87,0,0,0,10.69-4.16l4.18,13a22.57,22.57,0,0,1-4,2.07A55.84,55.84,0,0,1,260,129,91,91,0,0,1,249.78,131,93.43,93.43,0,0,1,237.11,131.92Z"/><path class="cls-1" d="M324.36,42.07a44,44,0,0,1,15.38,2.22,24.83,24.83,0,0,1,10.13,6.57A25.21,25.21,0,0,1,355.41,61a49.72,49.72,0,0,1,1.75,13.07l.48,52.81-5.43.94q-3.49.6-7.87,1.13c-2.93.35-6.09.68-9.5,1s-6.8.47-10.15.5a55.8,55.8,0,0,1-13.18-1.34,29.33,29.33,0,0,1-10.44-4.54,21.05,21.05,0,0,1-6.9-8.3,29.19,29.19,0,0,1-2.55-12.49,23.93,23.93,0,0,1,2.73-12,22.6,22.6,0,0,1,7.64-8.2,35.83,35.83,0,0,1,11.33-4.65A61.54,61.54,0,0,1,327,77.31c1.52,0,3.09,0,4.72.2s3.17.35,4.63.61l3.83.69c1.08.21,1.84.37,2.28.47l0-4.22a34.08,34.08,0,0,0-.88-7.39,16.93,16.93,0,0,0-3-6.47,14.83,14.83,0,0,0-5.81-4.5,22.76,22.76,0,0,0-9.52-1.62,71.62,71.62,0,0,0-13.07,1.18,46.49,46.49,0,0,0-8.35,2.27L299.86,46a46.57,46.57,0,0,1,9.73-2.6A83.66,83.66,0,0,1,324.36,42.07Zm2,75.71q5.36,0,9.5-.33a41.79,41.79,0,0,0,6.9-1l-.23-25.18a19.59,19.59,0,0,0-5.3-1.34,58.61,58.61,0,0,0-8.86-.48,56.65,56.65,0,0,0-7.22.55,22.47,22.47,0,0,0-7,2.09,15,15,0,0,0-5.24,4.28,11,11,0,0,0-2.05,7.09q.08,8.11,5.3,11.24T326.36,117.78Z"/><path class="cls-1" d="M391.35,46q5.19-1.35,13.7-2.89a117.88,117.88,0,0,1,19.73-1.65,37.12,37.12,0,0,1,13.67,2.07,23.91,23.91,0,0,1,9.32,6.34c.75-.55,1.94-1.32,3.56-2.31a39,39,0,0,1,6-2.9,63.64,63.64,0,0,1,7.94-2.51A40.24,40.24,0,0,1,474.67,41q9.75-.09,15.95,2.69a22.86,22.86,0,0,1,9.74,8A31.19,31.19,0,0,1,505.18,64a93.54,93.54,0,0,1,1.37,15.59L507,127l-15.11.14L491.46,83a96,96,0,0,0-.84-12.83,24.72,24.72,0,0,0-2.85-8.91A12.64,12.64,0,0,0,482.2,56a20.47,20.47,0,0,0-9-1.62,33.42,33.42,0,0,0-12.57,2.14,25,25,0,0,0-6.71,3.72,55.71,55.71,0,0,1,2,9.24A81,81,0,0,1,456.66,80l.44,47.45-15.11.14-.41-44.2a88.43,88.43,0,0,0-.93-12.83,25.92,25.92,0,0,0-2.93-8.91,12.59,12.59,0,0,0-5.57-5.23,20.15,20.15,0,0,0-8.87-1.63c-1.52,0-3.14.09-4.87.21s-3.39.28-5,.45-3,.38-4.3.61-2.16.4-2.59.51l.65,71.33-15.11.14Z"/><path class="cls-1" d="M548,26.85a9.66,9.66,0,0,1-6.93-2.61A9.41,9.41,0,0,1,538.15,17a9.43,9.43,0,0,1,2.77-7.25,10.23,10.23,0,0,1,13.82-.13,9.47,9.47,0,0,1,2.91,7.2,9.48,9.48,0,0,1-2.78,7.26A9.71,9.71,0,0,1,548,26.85Zm8.55,99.7-15.11.14-.78-84.49,15.11-.14Z"/><path class="cls-1" d="M617.33,127.62q-14-.2-19.88-5.83t-6-17.66L590.5,2.74,605.59,0l.93,101.56a24.65,24.65,0,0,0,.71,6.16,8.44,8.44,0,0,0,2.15,3.89,9.09,9.09,0,0,0,3.92,2.15,40,40,0,0,0,6,1.17Z"/><path class="cls-1" d="M719.94,82.8A53.53,53.53,0,0,1,717.18,101a41.71,41.71,0,0,1-8.07,14,36.19,36.19,0,0,1-12.52,9.13,41.5,41.5,0,0,1-31.84.29,36,36,0,0,1-12.68-8.9,41.58,41.58,0,0,1-8.33-13.9,53.62,53.62,0,0,1-3.1-18.17,53.58,53.58,0,0,1,2.76-18.14,41.51,41.51,0,0,1,8.08-14.14A36.06,36.06,0,0,1,664,42.12a41.65,41.65,0,0,1,31.85-.29,36,36,0,0,1,12.67,8.9,41.48,41.48,0,0,1,8.34,14A53.65,53.65,0,0,1,719.94,82.8ZM704.18,83q-.13-14.3-6.63-22.61T680,52.13q-11.06.1-17.39,8.53t-6.21,22.73q.12,14.3,6.62,22.6t17.55,8.21q11-.11,17.39-8.53T704.18,83Z"/><path class="cls-1" d="M258.23,207.89l15.77-.15.48,52.65q-2,.67-5.59,1.51t-8.44,1.71q-4.78.86-10.47,1.47a115.32,115.32,0,0,1-11.53.68,57.71,57.71,0,0,1-21.64-3.7A45.88,45.88,0,0,1,200,250.84a51.25,51.25,0,0,1-11-18.27,75.57,75.57,0,0,1-4.05-25A68.32,68.32,0,0,1,189,182.44a54.37,54.37,0,0,1,11.45-18.55,49,49,0,0,1,17-11.53,56.6,56.6,0,0,1,21-4.09,83.32,83.32,0,0,1,13.58.85,77.37,77.37,0,0,1,10.17,2.18,49,49,0,0,1,6.93,2.54,38,38,0,0,1,3.68,1.91L268,169a42.22,42.22,0,0,0-12.56-5,62.71,62.71,0,0,0-15.94-1.89,38.73,38.73,0,0,0-15.65,3.23,32.66,32.66,0,0,0-11.94,9,42.09,42.09,0,0,0-7.59,14.29,59.52,59.52,0,0,0-2.59,18.79,67,67,0,0,0,2.52,18.34,39.46,39.46,0,0,0,7.28,14.15,32.52,32.52,0,0,0,12,9.08,39.56,39.56,0,0,0,16.68,3.09,78.09,78.09,0,0,0,11.62-.84,52.25,52.25,0,0,0,6.89-1.44Z"/><path class="cls-1" d="M357.68,260q-5.19,1.35-13.71,2.89a117.86,117.86,0,0,1-19.73,1.64q-9.75.09-16.44-2.69a26.29,26.29,0,0,1-10.79-8,32.73,32.73,0,0,1-6-12.21A64.54,64.54,0,0,1,289.11,226l-.43-47.45,15.11-.14.4,44.2q.15,15.43,5.08,22t16.47,6.51q2.44,0,5-.21c1.73-.12,3.35-.27,4.87-.45s2.9-.35,4.14-.52a12.08,12.08,0,0,0,2.68-.6L341.81,178l15.11-.14Z"/><path class="cls-1" d="M431.28,188.58q-3.37,3.78-8.92,10.65t-11.88,15.22q-6.35,8.36-12.68,17.51t-11.13,17.49l46.47-.43.12,12.67-64.51.6-.1-10.08q3.84-7.19,9.45-15.85t11.78-17.25q6.18-8.6,12-16.2t10.2-12.85l-41.76.38-.11-12.67,60.93-.56Z"/><path class="cls-1" d="M443.88,179.53q5.17-1.35,13.7-2.89A118.93,118.93,0,0,1,477.31,175,37.15,37.15,0,0,1,491,177.07a24.07,24.07,0,0,1,9.32,6.33c.75-.55,1.94-1.32,3.55-2.31a40.05,40.05,0,0,1,6-2.9,64.8,64.8,0,0,1,7.94-2.51,40.16,40.16,0,0,1,9.41-1.14q9.75-.09,15.95,2.7a22.94,22.94,0,0,1,9.75,7.95,31.24,31.24,0,0,1,4.82,12.31,92.53,92.53,0,0,1,1.36,15.59l.44,47.44-15.11.14L544,216.48a95.69,95.69,0,0,0-.85-12.83,25,25,0,0,0-2.84-8.92,12.72,12.72,0,0,0-5.58-5.23,20.74,20.74,0,0,0-9-1.62A33.41,33.41,0,0,0,513.12,190a24.57,24.57,0,0,0-6.71,3.71,56.06,56.06,0,0,1,2,9.25,84.34,84.34,0,0,1,.75,10.55l.43,47.45-15.11.14-.4-44.2a88.43,88.43,0,0,0-.93-12.83,25.92,25.92,0,0,0-2.93-8.91,12.7,12.7,0,0,0-5.57-5.23,20.3,20.3,0,0,0-8.87-1.62c-1.52,0-3.15.08-4.88.21s-3.38.27-4.95.45-3,.38-4.3.61-2.16.4-2.6.51l.66,71.33-15.11.14Z"/><path class="cls-1" d="M603.23,173.52a43.75,43.75,0,0,1,15.38,2.21,24,24,0,0,1,15.67,16.76A49.23,49.23,0,0,1,636,205.55l.49,52.81-5.44.95c-2.33.4-5,.77-7.87,1.13s-6.09.67-9.5,1-6.79.47-10.15.5a56.32,56.32,0,0,1-13.18-1.34A29.49,29.49,0,0,1,579.94,256a21.25,21.25,0,0,1-6.9-8.31,29.14,29.14,0,0,1-2.55-12.48,24.21,24.21,0,0,1,2.73-12.06,22.6,22.6,0,0,1,7.65-8.19,35.51,35.51,0,0,1,11.33-4.65,61.45,61.45,0,0,1,13.63-1.59,45.05,45.05,0,0,1,4.72.2c1.62.15,3.17.35,4.64.6l3.82.7c1.08.21,1.84.37,2.28.47l0-4.23a34,34,0,0,0-.88-7.38,17.11,17.11,0,0,0-3-6.48,14.86,14.86,0,0,0-5.81-4.49,22.52,22.52,0,0,0-9.53-1.62A70.74,70.74,0,0,0,589,187.71a45.27,45.27,0,0,0-8.34,2.27l-1.91-12.5a47.45,47.45,0,0,1,9.73-2.61A84.75,84.75,0,0,1,603.23,173.52Zm2,75.71c3.58,0,6.74-.15,9.5-.33a41.79,41.79,0,0,0,6.9-1l-.23-25.19a19.56,19.56,0,0,0-5.29-1.33,58.55,58.55,0,0,0-8.86-.49,56.75,56.75,0,0,0-7.23.56,22,22,0,0,0-7,2.09,15,15,0,0,0-5.24,4.27,11.1,11.1,0,0,0-2,7.09q.07,8.13,5.3,11.25T605.23,249.23Zm18.88-96.67-18.4,18.21-6.24-5.48,16.66-20.43Z"/><path class="cls-1" d="M653,177.61q5.18-1.35,13.78-2.89a119.45,119.45,0,0,1,19.81-1.64q10.08-.09,16.77,2.69a26.11,26.11,0,0,1,10.71,7.86,30.78,30.78,0,0,1,5.72,12.22,70.81,70.81,0,0,1,1.77,15.74L722,259l-15.12.14-.4-44.2a72.12,72.12,0,0,0-1.18-13.31,22.5,22.5,0,0,0-3.58-8.91,13.73,13.73,0,0,0-6.54-4.89,28.36,28.36,0,0,0-10.09-1.45c-1.62,0-3.3.08-5,.2s-3.38.28-4.95.46-3,.38-4.22.6-2.13.4-2.67.52l.65,71.33-15.11.14Z"/></g></g></svg>